<svg aria-hidden="true" style="position: absolute; width: 0; height: 0; overflow: hidden;" version="1.1" xmlns="http://www.w3.org/2000/svg" xmlns:xlink="http://www.w3.org/1999/xlink">
<defs>
<symbol id="icon-instagram" viewBox="0 0 24 24">
<path d="M15.885 3h-8.769c-1.356 0.001-2.657 0.541-3.616 1.5s-1.498 2.259-1.5 3.616v8.769c0.001 1.356 0.541 2.657 1.5 3.615s2.259 1.498 3.616 1.5h8.769c1.356-0.001 2.656-0.541 3.615-1.5s1.498-2.259 1.5-3.615v-8.769c-0.002-1.356-0.541-2.657-1.5-3.616s-2.259-1.498-3.615-1.5zM11.5 16.885c-0.867 0-1.715-0.257-2.436-0.739s-1.283-1.167-1.615-1.968c-0.332-0.801-0.419-1.683-0.25-2.533s0.587-1.632 1.2-2.245c0.613-0.613 1.394-1.031 2.245-1.2s1.732-0.082 2.533 0.25 1.486 0.894 1.968 1.615c0.482 0.721 0.739 1.569 0.739 2.436-0.001 1.162-0.463 2.277-1.285 3.099s-1.937 1.284-3.099 1.285zM16.981 8.115c-0.217 0-0.429-0.064-0.609-0.185s-0.321-0.292-0.404-0.492c-0.083-0.2-0.105-0.421-0.062-0.633s0.147-0.408 0.3-0.561c0.153-0.153 0.349-0.258 0.561-0.3s0.433-0.021 0.633 0.062c0.2 0.083 0.372 0.223 0.492 0.404s0.185 0.392 0.185 0.609c0 0.291-0.116 0.57-0.321 0.775s-0.484 0.321-0.775 0.321zM14.423 12.5c0 0.578-0.171 1.143-0.493 1.624s-0.778 0.855-1.312 1.077c-0.534 0.221-1.122 0.279-1.689 0.166s-1.088-0.391-1.497-0.8-0.687-0.93-0.8-1.497c-0.113-0.567-0.055-1.155 0.166-1.689s0.596-0.991 1.077-1.312c0.481-0.321 1.046-0.493 1.624-0.493 0.775 0 1.519 0.308 2.067 0.856s0.856 1.292 0.856 2.067z"></path>
</symbol>
<symbol id="icon-youtube" viewBox="0 0 24 24">
<path d="M13.67 11.826l-2.34-1.092c-0.204-0.095-0.372 0.011-0.372 0.237v2.056c0 0.226 0.168 0.332 0.372 0.237l2.339-1.092c0.205-0.096 0.205-0.252 0.001-0.348zM12 2c-5.523 0-10 4.477-10 10s4.477 10 10 10c5.523 0 10-4.477 10-10s-4.477-10-10-10zM12 16.062c-5.119 0-5.208-0.462-5.208-4.062s0.090-4.062 5.208-4.062c5.119 0 5.208 0.461 5.208 4.062s-0.090 4.062-5.208 4.062z"></path>
</symbol>
<symbol id="icon-facebook" viewBox="0 0 24 24">
<path d="M22 12.025c0-5.534-4.48-10.025-10-10.025s-10 4.491-10 10.025c0 4.852 3.44 8.892 8 9.825v-6.817h-2v-3.007h2v-2.506c0-1.935 1.57-3.509 3.5-3.509h2.5v3.008h-2c-0.55 0-1 0.451-1 1.003v2.005h3v3.007h-3v6.967c5.050-0.501 9-4.772 9-9.975z"></path>
</symbol>
<symbol id="icon-rectangle" viewBox="0 0 2240 16">
<path d="M8 0h2224c4.418 0 8 3.582 8 8s-3.582 8-8 8h-2224c-4.418 0-8-3.582-8-8s3.582-8 8-8z"></path>
</symbol>
</defs>
</svg>
